<svg width="40" height="40" viewBox="0 0 40 40" fill="none" xmlns="http://www.w3.org/2000/svg">
<path d="M20.0709 28.6419C19.7486 28.6419 19.4464 28.592 19.1644 28.4921C18.8824 28.3921 18.6205 28.2205 18.3787 27.9772L9.67645 19.2749C9.19299 18.7914 8.96093 18.2274 8.98027 17.5828C8.99961 16.9381 9.23167 16.3741 9.67645 15.8907C10.1599 15.4072 10.7344 15.1558 11.4 15.1365C12.0656 15.1171 12.6393 15.3484 13.1211 15.8302L17.6536 20.3627V3.07893C17.6536 2.39403 17.8856 1.82032 18.3497 1.35781C18.8139 0.895303 19.3876 0.663241 20.0709 0.661629C20.7542 0.660018 21.3287 0.892079 21.7944 1.35781C22.2601 1.82355 22.4914 2.39725 22.4882 3.07893V20.3627L27.0206 15.8302C27.5041 15.3468 28.0786 15.1147 28.7442 15.134C29.4097 15.1534 29.9834 15.4056 30.4653 15.8907C30.9084 16.3741 31.1405 16.9381 31.1615 17.5828C31.1824 18.2274 30.9503 18.7914 30.4653 19.2749L21.763 27.9772C21.5212 28.2189 21.2594 28.3905 20.9774 28.4921C20.6953 28.5936 20.3932 28.6435 20.0709 28.6419ZM5.56703 39.3385C4.23751 39.3385 3.09977 38.8655 2.1538 37.9196C1.20782 36.9736 0.734033 35.835 0.732422 34.5039V29.6693C0.732422 28.9844 0.964483 28.4107 1.42861 27.9482C1.89273 27.4857 2.46644 27.2536 3.14973 27.252C3.83302 27.2504 4.40753 27.4824 4.87326 27.9482C5.339 28.4139 5.57025 28.9876 5.56703 29.6693V34.5039H34.5747V29.6693C34.5747 28.9844 34.8068 28.4107 35.2709 27.9482C35.735 27.4857 36.3087 27.2536 36.992 27.252C37.6753 27.2504 38.2498 27.4824 38.7155 27.9482C39.1813 28.4139 39.4125 28.9876 39.4093 29.6693V34.5039C39.4093 35.8334 38.9363 36.972 37.9903 37.9196C37.0444 38.8671 35.9058 39.3401 34.5747 39.3385H5.56703Z" fill="white"/>
</svg>
