<svg width="39" height="39" viewBox="0 0 39 39" fill="none" xmlns="http://www.w3.org/2000/svg">
<g id="Group 19">
<g id="Group 16">
<path id="Vector" d="M31.917 13.3108L31.917 1.77713" stroke="white" stroke-width="1.78674" stroke-linecap="round" stroke-linejoin="round"/>
<path id="Vector_2" d="M37.7031 7.5437L26.1297 7.5437" stroke="white" stroke-width="1.78674" stroke-linecap="round" stroke-linejoin="round"/>
</g>
<g id="Group 17">
<path id="Vector_3" d="M6.75488 36.4338L6.75488 28.1824" stroke="white" stroke-width="1.36879" stroke-linecap="round" stroke-linejoin="round"/>
<path id="Vector_4" d="M10.8945 32.3083L2.61465 32.3083" stroke="white" stroke-width="1.36879" stroke-linecap="round" stroke-linejoin="round"/>
</g>
<path id="Vector 10" d="M13.6751 10.6239C10.4482 12.2975 9.06007 13.7783 7.84072 16.3432C7.67397 16.694 7.15979 16.6941 6.9933 16.3432C5.63929 13.4897 4.18913 12.0494 1.1901 10.6037C0.847626 10.4387 0.844946 9.94018 1.18624 9.77266C4.30443 8.24208 5.79886 6.80682 7.01197 4.08028C7.17153 3.72166 7.69422 3.70935 7.86678 4.0619C9.2705 6.92992 10.7051 8.39192 13.6589 9.79506C13.9996 9.95694 14.01 10.4502 13.6751 10.6239Z" fill="white"/>
<path id="Vector 11" d="M33.5266 26.4789C27.7483 29.4757 25.2625 32.1274 23.0791 36.7205C22.7805 37.3485 21.8597 37.3487 21.5616 36.7204C19.137 31.6106 16.5402 29.0315 11.1698 26.4428C10.5565 26.1472 10.5517 25.2545 11.1629 24.9546C16.7466 22.2137 19.4227 19.6436 21.595 14.7612C21.8807 14.1191 22.8167 14.097 23.1257 14.7283C25.6394 19.8641 28.2082 22.4821 33.4976 24.9947C34.1078 25.2845 34.1263 26.1678 33.5266 26.4789Z" fill="white"/>
</g>
</svg>
