<svg width="45" height="44" viewBox="0 0 45 44" fill="none" xmlns="http://www.w3.org/2000/svg">
<path d="M30.1175 15.1379V9.64053H15.4577V15.1379H11.7928V5.97559H33.7825V15.1379H30.1175ZM33.7825 23.3841C34.3017 23.3841 34.7372 23.2082 35.089 22.8563C35.4408 22.5045 35.6161 22.0696 35.6149 21.5516C35.6137 21.0336 35.4378 20.5987 35.0872 20.2469C34.7366 19.895 34.3017 19.7191 33.7825 19.7191C33.2633 19.7191 32.8283 19.895 32.4777 20.2469C32.1271 20.5987 31.9512 21.0336 31.95 21.5516C31.9488 22.0696 32.1247 22.5051 32.4777 22.8582C32.8308 23.2112 33.2657 23.3865 33.7825 23.3841ZM30.1175 35.2951V27.9653H15.4577V35.2951H30.1175ZM33.7825 38.9601H11.7928V31.6302H4.46289V20.6354C4.46289 19.0778 4.99736 17.7724 6.0663 16.7194C7.13525 15.6663 8.43325 15.1392 9.96031 15.1379H35.6149C37.1725 15.1379 38.4785 15.6651 39.5328 16.7194C40.587 17.7737 41.1136 19.079 41.1123 20.6354V31.6302H33.7825V38.9601ZM37.4474 27.9653V20.6354C37.4474 20.1162 37.2715 19.6813 36.9196 19.3306C36.5678 18.98 36.1329 18.8041 35.6149 18.8029H9.96031C9.44111 18.8029 9.0062 18.9788 8.65559 19.3306C8.30498 19.6825 8.12906 20.1174 8.12784 20.6354V27.9653H11.7928V24.3003H33.7825V27.9653H37.4474Z" fill="white"/>
</svg>
