<svg width="52" height="56" viewBox="0 0 52 56" fill="none" xmlns="http://www.w3.org/2000/svg">
<path d="M46.5599 40.9382L34.3167 53.5205L31.9355 2.67529L37.8885 3.69634L41.9689 8.62638L42.649 9.13691L46.0513 14.5794L46.5599 40.9382Z" fill="white"/>
<path d="M34.8086 3.32691C35.3511 3.04998 35.9502 2.89362 36.5681 2.88043C39.5239 2.82203 41.2363 4.44026 41.9164 7.46196C42.0821 8.19667 41.9616 8.94832 41.6432 9.63028C41.3776 10.1973 40.6203 10.6363 39.8422 10.7512" fill="white"/>
<path d="M35.0928 3.81498C35.5506 3.58703 36.0554 3.45893 36.5678 3.44575C36.9465 3.43633 37.4005 3.46647 37.6793 3.51356C38.0354 3.57573 38.3876 3.66992 38.723 3.80745C38.6401 3.77354 38.8511 3.86773 38.8793 3.88092C38.9584 3.92048 39.0357 3.96004 39.111 4.00525C39.2617 4.09191 39.4068 4.18798 39.5462 4.2916C39.469 4.2332 39.631 4.3613 39.6555 4.38202C39.7158 4.43288 39.7742 4.48563 39.8307 4.54026C39.9644 4.66837 40.0888 4.80589 40.2074 4.94906C40.2225 4.96602 40.2941 5.05832 40.2357 4.98297C40.2583 5.01123 40.279 5.04137 40.2998 5.06963C40.3544 5.1431 40.4052 5.22034 40.4561 5.29757C40.5597 5.45582 40.6539 5.61971 40.7406 5.78926C40.929 6.15473 41.0345 6.426 41.1644 6.84233C41.2944 7.25866 41.4282 7.70891 41.4244 8.16103C41.4225 8.44172 41.3736 8.71111 41.2907 8.97862C41.2285 9.18208 41.123 9.44582 41.0137 9.57015C40.6841 9.94692 40.183 10.1278 39.6894 10.2069C39.388 10.2559 39.2203 10.6308 39.2938 10.902C39.3823 11.2223 39.6875 11.3466 39.9889 11.2976C40.5974 11.1997 41.1795 10.9397 41.6448 10.5328C42.1101 10.1259 42.3287 9.56638 42.453 8.99934C42.7017 7.86903 42.3833 6.7406 41.9406 5.70072C41.2568 4.09379 39.9644 2.85798 38.2313 2.47556C36.9804 2.19863 35.6787 2.26457 34.522 2.83915C34.2488 2.97478 34.1735 3.36097 34.3185 3.61152C34.4805 3.89033 34.8177 3.95062 35.0909 3.81498H35.0928Z" fill="#0087C8"/>
<path d="M34.8075 3.32711C34.378 2.37199 33.696 1.78047 32.8445 1.43195C31.8837 1.03823 30.7986 1.01374 29.8153 1.35283C28.5587 1.78612 27.7694 2.6753 27.5132 4.09007C27.3776 4.83607 27.4812 5.60469 27.7882 6.29795L27.8919 6.53154C28.035 6.85368 28.0331 7.17017 27.905 7.44521L27.5302 8.17991C27.2532 8.72435 27.2721 9.37239 27.581 9.89799L27.9107 10.4594C28.2065 10.904 28.0859 11.503 27.6432 11.7988L26.916 12.2829V47.6542L27.971 48.6036C28.3214 48.9201 28.3364 49.4646 28.003 49.798L27.922 49.879C27.6997 50.1013 27.5848 50.4102 27.5961 50.7248C27.662 52.3939 28.3515 53.4941 29.4517 54.2232C30.8231 55.1312 32.6392 55.1161 33.9447 54.1139C34.5155 53.675 35.0957 53.1531 35.4178 52.5861L34.5682 51.906" fill="white"/>
<path d="M35.2948 3.0424C34.3435 0.98335 31.8738 0.0979393 29.7544 0.77801C28.8615 1.06436 28.0778 1.5956 27.5616 2.3887C26.9814 3.27977 26.7855 4.41761 26.9513 5.4575C27.0285 5.93977 27.2263 6.3561 27.3977 6.80634C27.3544 6.69519 27.4298 6.93821 27.4316 6.9627C27.4373 7.02675 27.4354 7.04559 27.4241 7.10022C27.4166 7.13978 27.3506 7.29991 27.4128 7.16239C27.3714 7.2547 27.3205 7.34512 27.2734 7.43555C27.1227 7.73131 26.9475 8.02896 26.8552 8.34922C26.6951 8.90684 26.7591 9.50967 27.0078 10.0296C27.1227 10.2707 27.2715 10.4968 27.4072 10.7266C27.5315 10.9414 27.556 11.143 27.3525 11.3106C27.0078 11.5951 26.3729 11.7722 26.3465 12.2902C26.3051 13.0532 26.3465 13.8293 26.3465 14.5923V20.0687C26.3465 22.4988 26.3465 24.929 26.3465 27.3592C26.3465 29.9495 26.3465 32.5398 26.3465 35.1301C26.3465 37.4095 26.3465 39.6871 26.3465 41.9666C26.3465 43.4887 26.3465 45.0109 26.3465 46.533V47.5409C26.3465 47.7312 26.3692 47.9026 26.5142 48.0552C26.8345 48.3905 27.2244 48.6599 27.5522 48.9896C27.7236 49.1629 27.7105 49.2759 27.5466 49.453C27.1378 49.8957 26.9965 50.3893 27.0436 50.9846C27.1246 51.9811 27.4298 52.9212 28.0514 53.7105C29.3381 55.34 31.6421 55.8939 33.524 55.0273C34.0101 54.8032 34.4358 54.4622 34.8352 54.1099C35.2346 53.7576 35.6245 53.3432 35.9014 52.8722C36.0164 52.6763 36.0051 52.341 35.8129 52.1865C35.5303 51.9604 35.2459 51.7325 34.9633 51.5064C34.7259 51.3161 34.3962 51.2747 34.1645 51.5064C33.9667 51.7042 33.9253 52.1149 34.1645 52.3052C34.4471 52.5312 34.7316 52.7592 35.0142 52.9852L34.9256 52.2995C34.6261 52.8063 34.1758 53.2075 33.7181 53.573C33.3036 53.9046 32.8402 54.1344 32.324 54.2493C31.3406 54.4659 30.297 54.1871 29.5076 53.5749C28.8012 53.0286 28.366 52.2336 28.2134 51.3218C28.1777 51.1033 28.1324 50.8489 28.155 50.6285C28.1758 50.4364 28.2737 50.3309 28.3962 50.1971C28.8144 49.7469 28.9293 49.0932 28.6298 48.5431C28.4696 48.2492 28.1776 48.0345 27.9327 47.8141C27.7255 47.6276 27.5164 47.4392 27.3092 47.2527L27.475 47.652C27.475 46.4803 27.475 45.3066 27.475 44.1349C27.475 41.3185 27.475 38.5022 27.475 35.6877C27.475 32.2817 27.475 28.8738 27.475 25.4678C27.475 22.5233 27.475 19.5789 27.475 16.6325V13.722C27.475 13.2661 27.5032 12.797 27.475 12.3411C27.475 12.3223 27.475 12.3015 27.475 12.2808L27.1943 12.7687C27.475 12.5803 27.7689 12.4052 28.0364 12.1979C28.6693 11.7081 28.7861 10.8472 28.3905 10.1709C28.2021 9.84688 27.9403 9.50778 27.8988 9.12536C27.848 8.66005 28.1079 8.27198 28.3095 7.87637C28.4395 7.62205 28.5356 7.37338 28.5544 7.08327C28.577 6.73099 28.4489 6.41638 28.3114 6.10178C28.0307 5.46504 27.9346 4.76236 28.0816 4.0804C28.3491 2.83518 29.1704 2.04396 30.4119 1.76327C31.2351 1.57676 32.1375 1.68038 32.8873 2.07033C33.5466 2.41319 34.0025 2.93879 34.3115 3.60756C34.4396 3.88448 34.839 3.95419 35.0839 3.81101C35.3683 3.64523 35.4154 3.31556 35.2873 3.03863L35.2948 3.0424Z" fill="#0087C8"/>
<path d="M35.418 52.5857C38.1194 53.0831 39.7358 50.7678 39.8394 49.1854C42.0774 48.9555 42.6783 46.6346 41.71 45.9546C43.3848 46.3163 44.6545 46.013 45.4514 44.9335C46.4611 43.7203 46.7625 42.3526 46.4724 40.8531C45.035 40.7683 44.0328 40.4499 43.5807 39.832" fill="white"/>
<path d="M35.2704 53.1302C36.6306 53.3695 37.9662 53.0342 38.9854 52.0828C39.7841 51.3368 40.3267 50.2781 40.4077 49.1836L39.8425 49.7487C40.986 49.6206 42.041 49.0272 42.5063 47.9346C42.8718 47.0755 42.7945 46.0469 41.9995 45.4648L41.5644 46.4972C42.7154 46.7383 44.0096 46.7779 45.0325 46.1016C45.5487 45.7606 45.9387 45.2802 46.2797 44.7716C46.6206 44.2629 46.9013 43.6337 47.0313 43.0083C47.1914 42.2397 47.1669 41.4692 47.0219 40.7006C46.9748 40.4481 46.7111 40.3012 46.4775 40.2861C45.933 40.2522 45.3924 40.1844 44.8724 40.0148C44.6577 39.9451 44.5917 39.9207 44.3788 39.7925C44.3336 39.7662 44.2922 39.736 44.2489 39.7078C44.1264 39.6249 44.3091 39.7756 44.2074 39.6739C44.1735 39.64 44.1377 39.6079 44.1038 39.574C44.0831 39.5533 43.9964 39.444 44.0737 39.5458C43.889 39.3027 43.5857 39.1765 43.3013 39.3423C43.062 39.4817 42.9132 39.8717 43.0978 40.1147C43.8777 41.1452 45.268 41.3392 46.4775 41.4145L45.933 41.0001C46.0574 41.667 46.0517 42.3452 45.8727 42.9876C45.6938 43.63 45.317 44.2328 44.9421 44.6774C44.5898 45.0956 44.2187 45.3254 43.7063 45.4498C43.4218 45.5195 43.2165 45.5345 42.8944 45.5289C42.5421 45.5232 42.2086 45.4761 41.8658 45.4045C41.2177 45.2689 40.9163 46.062 41.4306 46.4369C41.2969 46.3389 41.4551 46.4727 41.4928 46.5085C41.3948 46.4181 41.4589 46.4557 41.4852 46.5028C41.5022 46.5311 41.5173 46.565 41.5361 46.5914C41.5945 46.6743 41.5079 46.4783 41.5361 46.5838C41.5436 46.6121 41.5549 46.6404 41.5644 46.6686C41.5738 46.7044 41.5813 46.7402 41.5907 46.7741C41.6133 46.857 41.5945 46.808 41.5907 46.7515C41.5945 46.8287 41.602 46.9041 41.6002 46.9813C41.6002 47.0209 41.5945 47.0605 41.5926 47.1C41.5889 47.2262 41.6265 46.987 41.5889 47.1113C41.5681 47.1848 41.5568 47.262 41.5342 47.3355C41.521 47.3769 41.506 47.4165 41.4928 47.4579C41.4513 47.5747 41.5003 47.4466 41.4815 47.4843C41.4438 47.5578 41.408 47.6313 41.3647 47.7028C41.3402 47.7424 41.3138 47.7801 41.2893 47.8196C41.2799 47.8347 41.1838 47.9496 41.2648 47.8554C41.2008 47.9289 41.1367 48.0005 41.067 48.0683C41.0369 48.0966 41.0049 48.1248 40.9747 48.1512C40.9559 48.1682 40.937 48.1832 40.9163 48.2002C40.9578 48.17 40.9615 48.1663 40.9295 48.1889C40.5829 48.4357 40.2287 48.5675 39.8519 48.6109C39.5298 48.6467 39.3113 48.8407 39.2868 49.176C39.2849 49.208 39.2604 49.3964 39.2849 49.2382C39.2793 49.2815 39.2717 49.3248 39.2623 49.3682C39.2435 49.4737 39.2171 49.5773 39.1869 49.6809C39.1606 49.7732 39.1304 49.8636 39.0965 49.954C39.0852 49.9842 39.0739 50.0143 39.0607 50.0445C39.0833 49.9936 39.0852 49.9861 39.0701 50.0238C39.0475 50.0765 39.0212 50.1311 38.9967 50.1839C38.8987 50.3855 38.7838 50.5795 38.6538 50.7622C38.6331 50.7905 38.6124 50.8206 38.5916 50.8489C38.6199 50.8131 38.6237 50.8093 38.5992 50.8395C38.5596 50.8884 38.5201 50.9374 38.4786 50.9845C38.4014 51.0731 38.3204 51.1578 38.2356 51.2388C37.9266 51.5346 37.5197 51.7927 37.1241 51.9246C36.6117 52.0941 36.1106 52.1261 35.5813 52.0338C35.2817 51.9811 34.9728 52.1148 34.8861 52.4294C34.8108 52.7026 34.9784 53.0718 35.2817 53.1246L35.2704 53.1302Z" fill="#0087C8"/>
<path d="M45.2822 15.5135L46.0113 14.9766L46.7045 15.4965C48.6298 16.9395 49.5002 19.4093 48.8729 21.7321C48.8653 21.7565 48.8597 21.781 48.8521 21.8055C51.2559 23.3088 51.4029 26.0574 50.0427 28.9472C51.5724 30.1378 51.9134 33.1991 49.3627 35.2393V37.1156C49.3627 38.2516 48.8521 39.3385 47.9516 40.0299C47.5259 40.3577 47.0286 40.6271 46.4728 40.8532" fill="white"/>
<path d="M45.5662 16.0014C45.8092 15.8224 46.0522 15.6435 46.2953 15.4645H45.7245C45.9938 15.6661 46.2727 15.8601 46.5289 16.0749C47.0808 16.5308 47.5216 17.062 47.8626 17.6856C48.5276 18.9044 48.6727 20.3211 48.3053 21.6567C48.2375 21.9054 48.3524 22.1597 48.5653 22.2954C49.057 22.6081 49.4922 23.015 49.786 23.4878C49.9424 23.7403 50.0366 23.94 50.1176 24.1736C50.1628 24.3073 50.2024 24.4448 50.2344 24.5842C50.2476 24.6445 50.2608 24.7048 50.2721 24.7651C50.2758 24.7877 50.3079 24.9912 50.3003 24.9215C50.468 26.2081 50.1025 27.4891 49.5524 28.6666C49.4564 28.8738 49.4356 29.1884 49.641 29.3523C49.786 29.4672 49.9217 29.5953 50.0422 29.7366C50.0535 29.7498 50.1477 29.8741 50.0724 29.7705C50.1006 29.8082 50.1289 29.8477 50.1553 29.8873C50.2137 29.974 50.2683 30.0644 50.3173 30.1567C50.3606 30.2358 50.4002 30.3187 50.436 30.4016C50.3851 30.2848 50.4492 30.4393 50.4548 30.4524C50.4718 30.4995 50.4887 30.5485 50.5057 30.5956C50.5622 30.7727 50.63 31.0704 50.6451 31.1796C50.6941 31.5357 50.6639 32.0518 50.5904 32.3853C50.4793 32.8826 50.3305 33.2292 50.0592 33.6569C49.9311 33.8585 49.8124 34.0148 49.6579 34.1881C49.4432 34.4274 49.1851 34.6158 48.9628 34.8437C48.7405 35.0717 48.797 35.471 48.797 35.7725C48.797 36.3922 48.863 37.0968 48.7499 37.6846C48.6369 38.2704 48.3863 38.813 47.9775 39.2482C47.5273 39.7267 46.9245 40.0639 46.3216 40.3107C46.0391 40.4275 45.8394 40.6855 45.926 41.0058C45.9995 41.2733 46.3367 41.5182 46.6212 41.4014C47.305 41.1207 47.9568 40.7835 48.5182 40.2956C49.0231 39.8566 49.3942 39.2858 49.6391 38.666C49.9594 37.8579 49.9273 37.0083 49.9273 36.1586C49.9273 35.8535 49.9273 35.5483 49.9273 35.245L49.7616 35.6443C51.5022 34.2333 52.3763 31.8164 51.3609 29.7196C51.1462 29.275 50.8297 28.8606 50.4416 28.5535L50.5302 29.2392C51.1895 27.8282 51.6266 26.2778 51.4024 24.7123C51.1989 23.2787 50.3474 22.0938 49.1361 21.3233L49.3961 21.9619C50.0893 19.4338 49.1794 16.7041 47.1015 15.1028C46.834 14.8975 46.5628 14.6978 46.2934 14.4943C46.1483 14.3851 45.8676 14.3869 45.7226 14.4943C45.4796 14.6733 45.2365 14.8523 44.9935 15.0312C44.7505 15.2102 44.6243 15.521 44.7901 15.8036C44.9314 16.0447 45.3157 16.1879 45.5624 16.0071L45.5662 16.0014Z" fill="#0087C8"/>
<path d="M46.0117 14.9767C46.6372 12.6991 46.0946 10.8699 44.6026 9.90157C43.6908 9.26295 42.9222 8.99732 41.9482 8.83154" fill="white"/>
<path d="M46.556 15.1274C46.8725 13.9519 46.9799 12.6407 46.541 11.4803C46.1096 10.3387 45.2543 9.5531 44.1918 8.98418C43.5362 8.6319 42.8298 8.41714 42.0988 8.28904C41.7993 8.23629 41.4903 8.37004 41.4037 8.68465C41.3283 8.95592 41.496 9.32704 41.7993 9.37979C42.517 9.50412 43.1952 9.70569 43.8263 10.0749C44.3651 10.3914 44.8361 10.7343 45.145 11.2034C45.454 11.6724 45.6329 12.215 45.6819 12.7349C45.7497 13.4508 45.6537 14.1403 45.469 14.8298C45.2844 15.5193 46.3695 15.8339 46.5598 15.1312L46.556 15.1274Z" fill="#0087C8"/>
<path d="M40.1804 10.8022V12.963L37.9688 14.8337V21.1258H42.0511L44.7713 18.916" stroke="#0087C8" stroke-width="0.565156" stroke-miterlimit="10"/>
<path d="M34.3984 24.0172L37.9683 21.1255" stroke="#0087C8" stroke-width="0.565156" stroke-miterlimit="10"/>
<path d="M40.0098 16.8736L42.73 14.1533" stroke="#0087C8" stroke-width="0.565156" stroke-miterlimit="10"/>
<path d="M40.5176 24.1869H43.4093L45.4495 22.4857C46.6005 23.147 47.7308 22.7514 48.8499 21.8057" stroke="#0087C8" stroke-width="0.565156" stroke-miterlimit="10"/>
<path d="M34.3984 27.0786H46.1311" stroke="#0087C8" stroke-width="0.565156" stroke-miterlimit="10"/>
<path d="M34.3984 30.3095H41.1991L43.0698 28.6084L44.9405 30.3095H47.6626L50.042 28.9494" stroke="#0087C8" stroke-width="0.565156" stroke-miterlimit="10"/>
<path d="M42.3887 33.1992H45.2804L48.1721 35.75H49.342" stroke="#0087C8" stroke-width="0.565156" stroke-miterlimit="10"/>
<path d="M34.5664 33.7095H37.6277L40.5175 36.4298H44.9389" stroke="#0087C8" stroke-width="0.565156" stroke-miterlimit="10"/>
<path d="M32.1875 36.0908L32.975 36.8048L37.63 41.0227H40.1807" stroke="#0087C8" stroke-width="0.565156" stroke-miterlimit="10"/>
<path d="M32.8676 36.771V45.6138L35.5897 48.1645L32.1875 51.5649" stroke="#0087C8" stroke-width="0.565156" stroke-miterlimit="10"/>
<path d="M39.8394 49.1856C39.0878 49.1931 38.5471 48.9463 38.3098 48.336V46.8063L35.7138 44.0464C35.6667 43.9956 35.7025 43.9146 35.7703 43.9146H42.0511" stroke="#0087C8" stroke-width="0.565156" stroke-miterlimit="10"/>
<path d="M30.9941 22.316V21.4664L34.5659 18.2356V11.433L37.4576 8.88228V6.33154" stroke="#0087C8" stroke-width="0.565156" stroke-miterlimit="10"/>
<path d="M34.5673 11.4331L32.1862 8.88232H31.167" stroke="#0087C8" stroke-width="0.565156" stroke-miterlimit="10"/>
<path d="M30.6582 5.14111L32.2727 6.75558V8.88245" stroke="#0087C8" stroke-width="0.565156" stroke-miterlimit="10"/>
<path d="M26.9375 45.4048L30.4867 48.5037" stroke="#0087C8" stroke-width="0.565156" stroke-miterlimit="10"/>
<path d="M26.916 39.6606L30.1468 42.8933" stroke="#0087C8" stroke-width="0.565156" stroke-miterlimit="10"/>
<path d="M26.916 19.9351L32.0175 15.5137" stroke="#0087C8" stroke-width="0.565156" stroke-miterlimit="10"/>
<path d="M31.9646 16.2086C32.4079 16.2086 32.7672 15.8493 32.7672 15.406C32.7672 14.9628 32.4079 14.6035 31.9646 14.6035C31.5214 14.6035 31.1621 14.9628 31.1621 15.406C31.1621 15.8493 31.5214 16.2086 31.9646 16.2086Z" fill="white" stroke="#0087C8" stroke-width="0.188385" stroke-miterlimit="10"/>
<path d="M30.9461 9.74518C31.3893 9.74518 31.7486 9.38588 31.7486 8.94266C31.7486 8.49944 31.3893 8.14014 30.9461 8.14014C30.5029 8.14014 30.1436 8.49944 30.1436 8.94266C30.1436 9.38588 30.5029 9.74518 30.9461 9.74518Z" fill="white" stroke="#0087C8" stroke-width="0.188385" stroke-miterlimit="10"/>
<path d="M30.4363 5.83405C30.8795 5.83405 31.2388 5.47475 31.2388 5.03153C31.2388 4.5883 30.8795 4.229 30.4363 4.229C29.9931 4.229 29.6338 4.5883 29.6338 5.03153C29.6338 5.47475 29.9931 5.83405 30.4363 5.83405Z" fill="white" stroke="#0087C8" stroke-width="0.188385" stroke-miterlimit="10"/>
<path d="M37.406 7.1944C37.8493 7.1944 38.2086 6.8351 38.2086 6.39188C38.2086 5.94866 37.8493 5.58936 37.406 5.58936C36.9628 5.58936 36.6035 5.94866 36.6035 6.39188C36.6035 6.8351 36.9628 7.1944 37.406 7.1944Z" fill="white" stroke="#0087C8" stroke-width="0.188385" stroke-miterlimit="10"/>
<path d="M43.0174 14.5074C43.4606 14.5074 43.8199 14.1481 43.8199 13.7049C43.8199 13.2616 43.4606 12.9023 43.0174 12.9023C42.5741 12.9023 42.2148 13.2616 42.2148 13.7049C42.2148 14.1481 42.5741 14.5074 43.0174 14.5074Z" fill="white" stroke="#0087C8" stroke-width="0.188385" stroke-miterlimit="10"/>
<path d="M40.1277 18.2491C40.5709 18.2491 40.9302 17.8898 40.9302 17.4466C40.9302 17.0033 40.5709 16.644 40.1277 16.644C39.6845 16.644 39.3252 17.0033 39.3252 17.4466C39.3252 17.8898 39.6845 18.2491 40.1277 18.2491Z" fill="white" stroke="#0087C8" stroke-width="0.188385" stroke-miterlimit="10"/>
<path d="M44.8904 19.6089C45.3336 19.6089 45.6929 19.2496 45.6929 18.8064C45.6929 18.3632 45.3336 18.0039 44.8904 18.0039C44.4472 18.0039 44.0879 18.3632 44.0879 18.8064C44.0879 19.2496 44.4472 19.6089 44.8904 19.6089Z" fill="white" stroke="#0087C8" stroke-width="0.188385" stroke-miterlimit="10"/>
<path d="M40.6385 24.8799C41.0817 24.8799 41.441 24.5206 41.441 24.0774C41.441 23.6342 41.0817 23.2749 40.6385 23.2749C40.1952 23.2749 39.8359 23.6342 39.8359 24.0774C39.8359 24.5206 40.1952 24.8799 40.6385 24.8799Z" fill="white" stroke="#0087C8" stroke-width="0.188385" stroke-miterlimit="10"/>
<path d="M46.4197 27.7715C46.8629 27.7715 47.2222 27.4122 47.2222 26.969C47.2222 26.5258 46.8629 26.1665 46.4197 26.1665C45.9765 26.1665 45.6172 26.5258 45.6172 26.969C45.6172 27.4122 45.9765 27.7715 46.4197 27.7715Z" fill="white" stroke="#0087C8" stroke-width="0.188385" stroke-miterlimit="10"/>
<path d="M42.1668 34.064C42.61 34.064 42.9693 33.7047 42.9693 33.2615C42.9693 32.8183 42.61 32.459 42.1668 32.459C41.7236 32.459 41.3643 32.8183 41.3643 33.2615C41.3643 33.7047 41.7236 34.064 42.1668 34.064Z" fill="white" stroke="#0087C8" stroke-width="0.188385" stroke-miterlimit="10"/>
<path d="M47.7781 31.1719C48.2213 31.1719 48.5806 30.8126 48.5806 30.3694C48.5806 29.9262 48.2213 29.5669 47.7781 29.5669C47.3349 29.5669 46.9756 29.9262 46.9756 30.3694C46.9756 30.8126 47.3349 31.1719 47.7781 31.1719Z" fill="white" stroke="#0087C8" stroke-width="0.188385" stroke-miterlimit="10"/>
<path d="M44.8904 37.2945C45.3336 37.2945 45.6929 36.9352 45.6929 36.492C45.6929 36.0488 45.3336 35.6895 44.8904 35.6895C44.4472 35.6895 44.0879 36.0488 44.0879 36.492C44.0879 36.9352 44.4472 37.2945 44.8904 37.2945Z" fill="white" stroke="#0087C8" stroke-width="0.188385" stroke-miterlimit="10"/>
<path d="M40.2957 41.7159C40.7389 41.7159 41.0982 41.3566 41.0982 40.9134C41.0982 40.4701 40.7389 40.1108 40.2957 40.1108C39.8525 40.1108 39.4932 40.4701 39.4932 40.9134C39.4932 41.3566 39.8525 41.7159 40.2957 41.7159Z" fill="white" stroke="#0087C8" stroke-width="0.188385" stroke-miterlimit="10"/>
<path d="M35.7049 44.7774C36.1481 44.7774 36.5074 44.4181 36.5074 43.9749C36.5074 43.5317 36.1481 43.1724 35.7049 43.1724C35.2616 43.1724 34.9023 43.5317 34.9023 43.9749C34.9023 44.4181 35.2616 44.7774 35.7049 44.7774Z" fill="white" stroke="#0087C8" stroke-width="0.188385" stroke-miterlimit="10"/>
<path d="M41.9969 44.608C42.4401 44.608 42.7994 44.2487 42.7994 43.8055C42.7994 43.3622 42.4401 43.0029 41.9969 43.0029C41.5536 43.0029 41.1943 43.3622 41.1943 43.8055C41.1943 44.2487 41.5536 44.608 41.9969 44.608Z" fill="white" stroke="#0087C8" stroke-width="0.188385" stroke-miterlimit="10"/>
<path d="M30.2664 43.7564C30.7096 43.7564 31.0689 43.3971 31.0689 42.9539C31.0689 42.5107 30.7096 42.1514 30.2664 42.1514C29.8232 42.1514 29.4639 42.5107 29.4639 42.9539C29.4639 43.3971 29.8232 43.7564 30.2664 43.7564Z" fill="white" stroke="#0087C8" stroke-width="0.188385" stroke-miterlimit="10"/>
<path d="M30.4363 49.3682C30.8795 49.3682 31.2388 49.0089 31.2388 48.5657C31.2388 48.1225 30.8795 47.7632 30.4363 47.7632C29.9931 47.7632 29.6338 48.1225 29.6338 48.5657C29.6338 49.0089 29.9931 49.3682 30.4363 49.3682Z" fill="white" stroke="#0087C8" stroke-width="0.188385" stroke-miterlimit="10"/>
<path d="M32.1355 52.2598C32.5788 52.2598 32.9381 51.9005 32.9381 51.4573C32.9381 51.0141 32.5788 50.6548 32.1355 50.6548C31.6923 50.6548 31.333 51.0141 31.333 51.4573C31.333 51.9005 31.6923 52.2598 32.1355 52.2598Z" fill="white" stroke="#0087C8" stroke-width="0.188385" stroke-miterlimit="10"/>
<path d="M5.23145 40.9377L17.4746 53.52L19.8558 2.6748L13.9028 3.69585L9.82239 8.6259L9.14232 9.13642L5.74009 14.5789L5.23145 40.9377Z" fill="white"/>
<path d="M16.9868 3.32642C16.4442 3.04949 15.8451 2.89313 15.2272 2.87995C12.2715 2.82155 10.559 4.43977 9.87898 7.46147C9.7132 8.19618 9.83376 8.94783 10.1521 9.62979C10.4178 10.1968 11.1751 10.6358 11.9531 10.7507" fill="white"/>
<path d="M17.271 2.83859C15.4738 1.94564 13.1039 2.19996 11.5214 3.43577C10.8602 3.95195 10.3459 4.64709 9.9861 5.40063C9.53774 6.34067 9.14025 7.47287 9.2627 8.52594C9.34182 9.20601 9.55093 9.9426 10.0483 10.4399C10.5117 10.9052 11.1616 11.1916 11.804 11.2952C12.1054 11.3442 12.4125 11.218 12.4992 10.8996C12.5726 10.6302 12.4068 10.2534 12.1035 10.2045C11.6703 10.1348 11.2125 9.98216 10.896 9.6864C10.7585 9.55829 10.6869 9.46033 10.6059 9.26818C10.5042 9.02516 10.4269 8.75765 10.3911 8.4958C10.3271 8.03237 10.4156 7.5972 10.5381 7.15261C10.6454 6.76454 10.7867 6.35009 10.9261 6.04867C11.2445 5.35918 11.5685 4.87503 12.1205 4.39653C12.145 4.37581 12.324 4.23264 12.2486 4.28916C12.3183 4.23641 12.3899 4.18743 12.4615 4.14033C12.6084 4.04425 12.7591 3.9576 12.9155 3.88036C12.9475 3.86529 12.9795 3.85022 13.0116 3.83515C13.0021 3.83891 13.1623 3.76921 13.0907 3.79935C13.0191 3.8295 13.183 3.76356 13.1736 3.76733C13.2075 3.75414 13.2414 3.74284 13.2753 3.72965C13.458 3.6656 13.6464 3.61097 13.8348 3.56764C13.9384 3.54503 14.042 3.52431 14.1456 3.50736C14.1833 3.5017 14.2229 3.49417 14.2624 3.48852C14.172 3.5017 14.3585 3.47721 14.3792 3.47533C14.6072 3.45272 14.837 3.44142 15.065 3.44142C15.6377 3.44142 16.1877 3.55634 16.702 3.81066C16.9752 3.94629 17.3143 3.88413 17.4744 3.6072C17.6214 3.35665 17.546 2.97046 17.271 2.83482V2.83859Z" fill="#0087C8"/>
<path d="M16.9815 3.32662C17.411 2.37151 18.0929 1.77998 18.9444 1.43146C19.9052 1.03774 20.9903 1.01325 21.9737 1.35234C23.2302 1.78563 24.0195 2.67481 24.2757 4.08958C24.4114 4.83559 24.3078 5.6042 24.0007 6.29746L23.8971 6.53105C23.7539 6.85319 23.7558 7.16968 23.8839 7.44472L24.2588 8.17943C24.5357 8.72386 24.5169 9.3719 24.2079 9.8975L23.8782 10.4589C23.5825 10.9035 23.703 11.5025 24.1458 11.7983L24.8729 12.2825V47.6537L23.818 48.6031C23.4676 48.9196 23.4525 49.4641 23.7859 49.7975L23.8669 49.8785C24.0892 50.1008 24.2042 50.4098 24.1928 50.7244C24.1269 52.3935 23.4374 53.4936 22.3373 54.2227C20.9658 55.1307 19.1498 55.1156 17.8443 54.1134C17.2735 53.6745 16.6932 53.1526 16.3711 52.5856L17.2207 51.9055" fill="white"/>
<path d="M17.4695 3.61304C17.7389 3.03093 18.1175 2.53548 18.6714 2.20015C19.3044 1.81585 20.0409 1.64819 20.7775 1.68586C22.0171 1.74803 23.1531 2.41303 23.5581 3.57537C23.8068 4.28746 23.8369 5.02782 23.6052 5.74933C23.5261 5.99612 23.3999 6.22218 23.3151 6.46708C23.1719 6.8853 23.2058 7.32989 23.3942 7.72738C23.5317 8.01938 23.7295 8.29819 23.8256 8.60714C23.9933 9.14592 23.7521 9.55283 23.4903 9.99931C23.332 10.2687 23.1945 10.5287 23.1606 10.8452C23.1154 11.269 23.2604 11.6854 23.5355 12.0075C23.8105 12.3296 24.2419 12.5406 24.5867 12.7686L24.306 12.2807V46.2126C24.306 46.6704 24.2777 47.1357 24.306 47.5935C24.306 47.6123 24.306 47.633 24.306 47.6538L24.4718 47.2544C24.1214 47.5709 23.7559 47.8742 23.4168 48.2038C22.9741 48.6334 22.8573 49.2946 23.1323 49.8485C23.2303 50.0444 23.3999 50.1687 23.5242 50.3401C23.6617 50.5304 23.6278 50.764 23.6108 50.9825C23.5336 51.9263 23.1625 52.7778 22.4749 53.4033C21.7873 54.0287 20.77 54.398 19.7829 54.3019C19.2083 54.2454 18.6563 54.0155 18.1948 53.6746C17.6861 53.2997 17.1813 52.8475 16.8572 52.2993L16.7687 52.9851L17.6183 52.305C17.8576 52.1147 17.818 51.7041 17.6183 51.5062C17.3828 51.2708 17.0588 51.3141 16.8196 51.5062L15.9699 52.1863C15.7778 52.3389 15.7646 52.6724 15.8814 52.872C16.1753 53.3713 16.5803 53.7951 17.0174 54.17C17.4224 54.5166 17.8444 54.8425 18.3342 55.0592C19.31 55.4925 20.4234 55.5697 21.4463 55.257C22.3901 54.9688 23.2247 54.3791 23.82 53.5954C24.4152 52.8118 24.6828 51.8642 24.7468 50.8978C24.7656 50.6189 24.7468 50.3401 24.6451 50.0764C24.5434 49.8127 24.37 49.6299 24.1967 49.4095C24.0649 49.2419 24.0762 49.1326 24.2438 48.9762C24.5791 48.6654 24.9559 48.3847 25.2705 48.0513C25.4928 47.8177 25.4363 47.4371 25.4363 47.1395V12.4803C25.4363 12.4163 25.4401 12.3522 25.4363 12.2882C25.408 11.7682 24.7694 11.5968 24.4303 11.3105C24.2156 11.1277 24.2532 10.9299 24.3851 10.7058C24.532 10.459 24.6903 10.2122 24.8071 9.95033C25.0426 9.41343 25.0897 8.78422 24.8862 8.2266C24.7807 7.93649 24.6262 7.66521 24.4868 7.39017C24.4605 7.33931 24.436 7.29033 24.4096 7.23946C24.3926 7.20932 24.3512 7.0944 24.3926 7.21686C24.3644 7.13208 24.3418 7.05296 24.3512 6.96253C24.3569 6.90979 24.3738 6.86269 24.3889 6.81183C24.419 6.70068 24.3625 6.86457 24.4058 6.76096C24.598 6.3013 24.7751 5.86237 24.8467 5.36314C24.9917 4.33456 24.7769 3.1986 24.1873 2.33202C22.9477 0.510338 20.3687 0.127916 18.4547 1.03405C17.5825 1.44661 16.8968 2.17001 16.4936 3.04224C16.3655 3.31916 16.4145 3.65072 16.6971 3.81462C16.9401 3.95779 17.3414 3.88997 17.4695 3.61116V3.61304Z" fill="#0087C8"/>
<path d="M16.3734 52.5857C13.6719 53.0831 12.0556 50.7678 11.952 49.1854C9.71395 48.9555 9.113 46.6346 10.0813 45.9546C8.40655 46.3163 7.13684 46.013 6.33997 44.9335C5.33022 43.7203 5.0288 42.3526 5.31892 40.8531C6.7563 40.7683 7.75851 40.4499 8.21063 39.832" fill="white"/>
<path d="M16.2231 52.0413C15.6918 52.1336 15.1945 52.1034 14.6802 51.932C14.2865 51.802 13.8777 51.542 13.5687 51.2463C13.484 51.1653 13.403 51.0805 13.3257 50.9919C13.2899 50.9524 13.256 50.9109 13.2221 50.8676C13.1807 50.8167 13.1769 50.8111 13.2127 50.8563C13.192 50.828 13.1712 50.7998 13.1505 50.7697C13.0205 50.5869 12.9056 50.3929 12.8077 50.1913C12.7851 50.1461 12.7643 50.1009 12.7436 50.0557C12.7172 49.9954 12.7172 49.9954 12.7436 50.0557C12.7323 50.0255 12.7191 49.9954 12.7078 49.9652C12.6739 49.8748 12.6438 49.7844 12.6174 49.6921C12.5872 49.5885 12.5628 49.4849 12.542 49.3794C12.5345 49.336 12.527 49.2927 12.5194 49.2494C12.5439 49.4076 12.5194 49.2192 12.5175 49.1872C12.4931 48.8557 12.2764 48.6579 11.9524 48.6221C11.8375 48.6089 11.9524 48.6258 11.8488 48.607C11.7885 48.5957 11.7282 48.5825 11.6679 48.5674C11.5549 48.5392 11.4419 48.5053 11.3326 48.4619C11.2233 48.4186 11.3722 48.4864 11.2629 48.4299C11.2215 48.4092 11.1819 48.3903 11.1423 48.3677C11.0576 48.3206 10.9766 48.2698 10.8955 48.2151C10.7863 48.1398 10.9389 48.2566 10.8485 48.1794C10.8108 48.1473 10.7731 48.1134 10.7373 48.0795C10.6676 48.0117 10.6017 47.9401 10.5395 47.8666C10.6167 47.9571 10.4717 47.7687 10.451 47.7348C10.402 47.6575 10.3643 47.5765 10.321 47.4955C10.2889 47.4352 10.3511 47.5897 10.3172 47.488C10.304 47.4465 10.2871 47.407 10.2739 47.3655C10.2475 47.2845 10.2362 47.2016 10.2117 47.1206C10.1797 47.0095 10.2117 47.2318 10.2079 47.1093C10.2079 47.0698 10.2004 47.0302 10.2004 46.9906C10.1985 46.9209 10.2098 46.8494 10.2079 46.7796C10.2061 46.7099 10.1759 46.8983 10.2061 46.8004C10.2155 46.7665 10.2211 46.7288 10.2305 46.693C10.24 46.6572 10.255 46.6252 10.2626 46.5913C10.2889 46.4877 10.2004 46.6836 10.2626 46.5988C10.2814 46.5724 10.2984 46.5366 10.3134 46.5103C10.3379 46.4669 10.4114 46.4161 10.3059 46.5159C10.3417 46.482 10.5056 46.3426 10.3681 46.4443C10.8786 46.0713 10.5847 45.2745 9.9329 45.412C9.60134 45.4817 9.2792 45.5288 8.93822 45.5363C8.77056 45.5401 8.6029 45.5363 8.43712 45.5194C8.358 45.5118 8.22989 45.4911 8.09237 45.4572C7.57997 45.3328 7.20885 45.103 6.85657 44.6848C6.48168 44.2402 6.10114 43.6223 5.92594 42.995C5.75074 42.3677 5.74132 41.6744 5.86566 41.0075L5.32123 41.422C6.53066 41.3466 7.91906 41.1526 8.70086 40.1221C8.88548 39.8791 8.73853 39.4891 8.4974 39.3497C8.20729 39.1802 7.90964 39.3083 7.72502 39.5532C7.80414 39.4496 7.70807 39.5683 7.69488 39.5814C7.66097 39.6154 7.62518 39.6474 7.59127 39.6813C7.51026 39.7623 7.6572 39.6436 7.54982 39.7152C7.51403 39.7397 7.47824 39.7642 7.44244 39.7868C7.35767 39.8395 7.26913 39.8866 7.1787 39.9281C7.01481 40.0053 7.27478 39.8942 7.09958 39.962C7.04307 39.9846 6.98467 40.0034 6.92627 40.0242C6.40632 40.1937 5.86377 40.2615 5.32123 40.2954C5.08951 40.3105 4.82389 40.4593 4.77679 40.7099C4.52812 42.0361 4.67506 43.3812 5.37586 44.5529C5.97869 45.5627 6.83584 46.4029 8.03586 46.6007C8.77433 46.7231 9.50526 46.6591 10.2343 46.5065L9.79914 45.4741C9.00227 46.0563 8.92504 47.0848 9.29239 47.9439C9.7577 49.0365 10.8127 49.6299 11.9562 49.758L11.391 49.1929C11.472 50.2874 12.0127 51.3442 12.8133 52.0921C13.8325 53.0435 15.1681 53.3788 16.5283 53.1395C16.8297 53.0868 16.9992 52.7194 16.9239 52.4444C16.8372 52.126 16.5302 51.996 16.2287 52.0488L16.2231 52.0413Z" fill="#0087C8"/>
<path d="M6.50797 15.5135L5.77891 14.9766L4.76163 15.7395C3.20934 16.9037 2.39928 18.829 2.70447 20.7468C2.7591 21.0859 2.83634 21.4401 2.93806 21.8055C0.534268 23.3088 0.387327 26.0574 1.74747 28.9472C0.21778 30.1378 -0.123197 33.1991 2.42754 35.2393V36.5335C2.42754 38.4098 3.54278 40.1203 5.27593 40.8324C5.28911 40.8381 5.30418 40.8437 5.31737 40.8494" fill="white"/>
<path d="M6.7936 15.0254L6.06455 14.4885C5.91949 14.3811 5.6388 14.3792 5.49374 14.4885C4.88902 14.9425 4.23156 15.372 3.70785 15.9202C2.76404 16.9055 2.19511 18.1921 2.0915 19.5504C2.02933 20.3623 2.18004 21.1743 2.39292 21.9561L2.65289 21.3174C1.44157 22.086 0.590071 23.271 0.386615 24.7065C0.16432 26.2739 0.601374 27.8224 1.25884 29.2334L1.34738 28.5477C-0.284037 29.84 -0.323598 32.3361 0.639051 34.0297C0.991332 34.6495 1.47548 35.192 2.02745 35.6385L1.86167 35.2391C1.86167 35.8589 1.82211 36.4956 1.89746 37.1117C2.04252 38.3079 2.56247 39.4345 3.42904 40.2803C3.93203 40.772 4.51979 41.1318 5.16783 41.3955C5.45041 41.5105 5.78951 41.2693 5.86298 40.9999C5.95152 40.6759 5.75183 40.4197 5.46737 40.3048C4.565 39.9356 3.8303 39.2103 3.39324 38.3192C3.0485 37.6146 2.9901 36.8724 2.9901 36.068C2.9901 35.793 3.00517 35.5142 2.9901 35.2391C2.96938 34.8718 2.64159 34.6984 2.40234 34.4648C2.2083 34.2765 2.01992 34.0692 1.87674 33.8677C1.57721 33.4476 1.38506 33.0651 1.25507 32.6036C1.2287 32.5094 1.20609 32.4152 1.18537 32.321C1.17407 32.2645 1.16465 32.208 1.15334 32.1515C1.11755 31.9725 1.16088 32.257 1.14204 32.0761C1.11943 31.8557 1.11001 31.6353 1.12132 31.4149C1.1232 31.3603 1.12885 31.3075 1.13262 31.2529C1.13639 31.2171 1.14016 31.1813 1.14392 31.1474C1.1345 31.2095 1.13639 31.2077 1.14581 31.1398C1.16841 31.0193 1.19102 30.9006 1.22116 30.7838C1.24754 30.6858 1.27768 30.5879 1.31159 30.4918C1.32854 30.4447 1.34738 30.3976 1.36622 30.3505C1.31912 30.4673 1.40201 30.2789 1.41143 30.2582C1.46229 30.1565 1.51693 30.0566 1.57721 29.9606C1.59416 29.9342 1.61112 29.9059 1.62996 29.8795C1.64314 29.8607 1.76371 29.6987 1.68271 29.8023C1.81834 29.6328 1.97282 29.4802 2.14237 29.3445C2.34959 29.1806 2.32887 28.8698 2.23091 28.6588C1.68082 27.4814 1.31535 26.2023 1.48302 24.9137C1.4736 24.9872 1.50186 24.8082 1.50562 24.7875C1.51881 24.7178 1.53388 24.6462 1.54895 24.5765C1.58098 24.439 1.62054 24.3015 1.66575 24.1658C1.74676 23.9266 1.83907 23.7325 1.99731 23.4801C2.29307 23.0035 2.72448 22.6003 3.21805 22.2876C3.43092 22.152 3.54584 21.8977 3.47802 21.649C3.26514 20.871 3.12762 20.1024 3.24254 19.2942C3.33861 18.6122 3.61177 17.9208 4.00738 17.3274C4.53298 16.54 5.31477 16.0163 6.06078 15.4568H5.48997L6.21902 15.9937C6.46581 16.1745 6.85011 16.0351 6.9914 15.7902C7.15907 15.5039 7.03473 15.1987 6.78795 15.0178L6.7936 15.0254Z" fill="#0087C8"/>
<path d="M5.78191 14.9767C5.15647 12.6991 5.69902 10.8699 7.19103 9.90157C8.10282 9.26295 8.87143 8.99732 9.84538 8.83154" fill="white"/>
<path d="M6.32597 14.826C6.13947 14.1365 6.04528 13.447 6.1131 12.7311C6.16208 12.2131 6.34293 11.663 6.64999 11.1995C6.95706 10.7361 7.42803 10.3876 7.96869 10.0711C8.59978 9.70188 9.27797 9.50031 9.99572 9.37597C10.2971 9.32323 10.4648 8.95399 10.3913 8.68083C10.3047 8.36246 9.9976 8.23436 9.69618 8.28522C8.44531 8.50187 7.20573 9.02558 6.27322 9.90722C5.44056 10.6947 5.02988 11.8005 4.9696 12.9289C4.93004 13.6674 5.04684 14.4134 5.23711 15.1236C5.42737 15.8338 6.51624 15.5268 6.32786 14.8222L6.32597 14.826Z" fill="#0087C8"/>
<path d="M11.6124 10.8018V12.9625L13.8241 14.8332V21.1253H9.74177L7.02148 18.9155" stroke="#0087C8" stroke-width="0.565156" stroke-miterlimit="10"/>
<path d="M17.3931 24.0172L13.8232 21.1255" stroke="#0087C8" stroke-width="0.565156" stroke-miterlimit="10"/>
<path d="M11.7828 16.8736L9.0625 14.1533" stroke="#0087C8" stroke-width="0.565156" stroke-miterlimit="10"/>
<path d="M11.2727 24.1869H8.381L6.34078 22.4857C5.18975 23.147 4.05944 22.7514 2.94043 21.8057" stroke="#0087C8" stroke-width="0.565156" stroke-miterlimit="10"/>
<path d="M17.3928 27.0781H5.66016" stroke="#0087C8" stroke-width="0.565156" stroke-miterlimit="10"/>
<path d="M17.3934 30.309H10.5909L8.72019 28.6079L6.8514 30.309H4.12924L1.74805 28.9489" stroke="#0087C8" stroke-width="0.565156" stroke-miterlimit="10"/>
<path d="M9.40252 33.1987H6.51081L3.61909 35.7495H2.44922" stroke="#0087C8" stroke-width="0.565156" stroke-miterlimit="10"/>
<path d="M17.2231 33.7095H14.1618L11.272 36.4298H6.85059" stroke="#0087C8" stroke-width="0.565156" stroke-miterlimit="10"/>
<path d="M19.6074 36.0908L18.82 36.8048L14.165 41.0227H11.6143" stroke="#0087C8" stroke-width="0.565156" stroke-miterlimit="10"/>
<path d="M18.9243 36.7705V45.6133L16.2021 48.1641L19.6044 51.5644" stroke="#0087C8" stroke-width="0.565156" stroke-miterlimit="10"/>
<path d="M11.9519 49.1851C12.7035 49.1926 13.2442 48.9458 13.4816 48.3355V46.8058L16.0775 44.0459C16.1246 43.9951 16.0888 43.9141 16.021 43.9141H9.74023" stroke="#0087C8" stroke-width="0.565156" stroke-miterlimit="10"/>
<path d="M20.7965 22.316V21.4664L17.2247 18.2356V11.433L14.333 8.88228V6.33154" stroke="#0087C8" stroke-width="0.565156" stroke-miterlimit="10"/>
<path d="M17.2227 11.4331L19.6038 8.88232H20.623" stroke="#0087C8" stroke-width="0.565156" stroke-miterlimit="10"/>
<path d="M21.135 5.14111L19.5205 6.75558V8.88245" stroke="#0087C8" stroke-width="0.565156" stroke-miterlimit="10"/>
<path d="M24.8548 45.4043L21.3057 48.5032" stroke="#0087C8" stroke-width="0.565156" stroke-miterlimit="10"/>
<path d="M24.8763 39.6606L21.6455 42.8933" stroke="#0087C8" stroke-width="0.565156" stroke-miterlimit="10"/>
<path d="M24.8759 19.9346L19.7744 15.5132" stroke="#0087C8" stroke-width="0.565156" stroke-miterlimit="10"/>
<path d="M20.6295 15.406C20.6295 15.8487 20.2696 16.2086 19.8269 16.2086C19.3842 16.2086 19.0244 15.8487 19.0244 15.406C19.0244 14.9633 19.3842 14.6035 19.8269 14.6035C20.2696 14.6035 20.6295 14.9633 20.6295 15.406Z" fill="white" stroke="#0087C8" stroke-width="0.188385" stroke-miterlimit="10"/>
<path d="M20.8455 9.74518C21.2887 9.74518 21.648 9.38588 21.648 8.94266C21.648 8.49944 21.2887 8.14014 20.8455 8.14014C20.4023 8.14014 20.043 8.49944 20.043 8.94266C20.043 9.38588 20.4023 9.74518 20.8455 9.74518Z" fill="white" stroke="#0087C8" stroke-width="0.188385" stroke-miterlimit="10"/>
<path d="M21.3562 5.83405C21.7995 5.83405 22.1588 5.47475 22.1588 5.03153C22.1588 4.5883 21.7995 4.229 21.3562 4.229C20.913 4.229 20.5537 4.5883 20.5537 5.03153C20.5537 5.47475 20.913 5.83405 21.3562 5.83405Z" fill="white" stroke="#0087C8" stroke-width="0.188385" stroke-miterlimit="10"/>
<path d="M14.3836 7.1944C14.8268 7.1944 15.1861 6.8351 15.1861 6.39188C15.1861 5.94866 14.8268 5.58936 14.3836 5.58936C13.9404 5.58936 13.5811 5.94866 13.5811 6.39188C13.5811 6.8351 13.9404 7.1944 14.3836 7.1944Z" fill="white" stroke="#0087C8" stroke-width="0.188385" stroke-miterlimit="10"/>
<path d="M8.77518 14.5074C9.2184 14.5074 9.5777 14.1481 9.5777 13.7049C9.5777 13.2616 9.2184 12.9023 8.77518 12.9023C8.33196 12.9023 7.97266 13.2616 7.97266 13.7049C7.97266 14.1481 8.33196 14.5074 8.77518 14.5074Z" fill="white" stroke="#0087C8" stroke-width="0.188385" stroke-miterlimit="10"/>
<path d="M11.6629 18.2486C12.1061 18.2486 12.4654 17.8893 12.4654 17.4461C12.4654 17.0029 12.1061 16.6436 11.6629 16.6436C11.2197 16.6436 10.8604 17.0029 10.8604 17.4461C10.8604 17.8893 11.2197 18.2486 11.6629 18.2486Z" fill="white" stroke="#0087C8" stroke-width="0.188385" stroke-miterlimit="10"/>
<path d="M6.90408 19.6089C7.3473 19.6089 7.70661 19.2496 7.70661 18.8064C7.70661 18.3632 7.3473 18.0039 6.90408 18.0039C6.46086 18.0039 6.10156 18.3632 6.10156 18.8064C6.10156 19.2496 6.46086 19.6089 6.90408 19.6089Z" fill="white" stroke="#0087C8" stroke-width="0.188385" stroke-miterlimit="10"/>
<path d="M11.1521 24.8799C11.5954 24.8799 11.9547 24.5206 11.9547 24.0774C11.9547 23.6342 11.5954 23.2749 11.1521 23.2749C10.7089 23.2749 10.3496 23.6342 10.3496 24.0774C10.3496 24.5206 10.7089 24.8799 11.1521 24.8799Z" fill="white" stroke="#0087C8" stroke-width="0.188385" stroke-miterlimit="10"/>
<path d="M5.37088 27.7715C5.8141 27.7715 6.1734 27.4122 6.1734 26.969C6.1734 26.5258 5.8141 26.1665 5.37088 26.1665C4.92766 26.1665 4.56836 26.5258 4.56836 26.969C4.56836 27.4122 4.92766 27.7715 5.37088 27.7715Z" fill="white" stroke="#0087C8" stroke-width="0.188385" stroke-miterlimit="10"/>
<path d="M9.62381 34.0635C10.067 34.0635 10.4263 33.7042 10.4263 33.261C10.4263 32.8178 10.067 32.4585 9.62381 32.4585C9.18059 32.4585 8.82129 32.8178 8.82129 33.261C8.82129 33.7042 9.18059 34.0635 9.62381 34.0635Z" fill="white" stroke="#0087C8" stroke-width="0.188385" stroke-miterlimit="10"/>
<path d="M4.01248 31.1719C4.4557 31.1719 4.815 30.8126 4.815 30.3694C4.815 29.9262 4.4557 29.5669 4.01248 29.5669C3.56926 29.5669 3.20996 29.9262 3.20996 30.3694C3.20996 30.8126 3.56926 31.1719 4.01248 31.1719Z" fill="white" stroke="#0087C8" stroke-width="0.188385" stroke-miterlimit="10"/>
<path d="M6.90408 37.2945C7.3473 37.2945 7.70661 36.9352 7.70661 36.492C7.70661 36.0488 7.3473 35.6895 6.90408 35.6895C6.46086 35.6895 6.10156 36.0488 6.10156 36.492C6.10156 36.9352 6.46086 37.2945 6.90408 37.2945Z" fill="white" stroke="#0087C8" stroke-width="0.188385" stroke-miterlimit="10"/>
<path d="M11.492 41.7159C11.9352 41.7159 12.2945 41.3566 12.2945 40.9134C12.2945 40.4701 11.9352 40.1108 11.492 40.1108C11.0488 40.1108 10.6895 40.4701 10.6895 40.9134C10.6895 41.3566 11.0488 41.7159 11.492 41.7159Z" fill="white" stroke="#0087C8" stroke-width="0.188385" stroke-miterlimit="10"/>
<path d="M16.0867 44.7769C16.5299 44.7769 16.8892 44.4176 16.8892 43.9744C16.8892 43.5312 16.5299 43.1719 16.0867 43.1719C15.6435 43.1719 15.2842 43.5312 15.2842 43.9744C15.2842 44.4176 15.6435 44.7769 16.0867 44.7769Z" fill="white" stroke="#0087C8" stroke-width="0.188385" stroke-miterlimit="10"/>
<path d="M9.79373 44.6075C10.237 44.6075 10.5963 44.2482 10.5963 43.805C10.5963 43.3617 10.237 43.0024 9.79373 43.0024C9.35051 43.0024 8.99121 43.3617 8.99121 43.805C8.99121 44.2482 9.35051 44.6075 9.79373 44.6075Z" fill="white" stroke="#0087C8" stroke-width="0.188385" stroke-miterlimit="10"/>
<path d="M21.5262 43.7559C21.9694 43.7559 22.3287 43.3966 22.3287 42.9534C22.3287 42.5102 21.9694 42.1509 21.5262 42.1509C21.0829 42.1509 20.7236 42.5102 20.7236 42.9534C20.7236 43.3966 21.0829 43.7559 21.5262 43.7559Z" fill="white" stroke="#0087C8" stroke-width="0.188385" stroke-miterlimit="10"/>
<path d="M21.3562 49.3682C21.7995 49.3682 22.1588 49.0089 22.1588 48.5657C22.1588 48.1225 21.7995 47.7632 21.3562 47.7632C20.913 47.7632 20.5537 48.1225 20.5537 48.5657C20.5537 49.0089 20.913 49.3682 21.3562 49.3682Z" fill="white" stroke="#0087C8" stroke-width="0.188385" stroke-miterlimit="10"/>
<path d="M19.657 52.2598C20.1002 52.2598 20.4595 51.9005 20.4595 51.4573C20.4595 51.0141 20.1002 50.6548 19.657 50.6548C19.2138 50.6548 18.8545 51.0141 18.8545 51.4573C18.8545 51.9005 19.2138 52.2598 19.657 52.2598Z" fill="white" stroke="#0087C8" stroke-width="0.188385" stroke-miterlimit="10"/>
<path d="M38.2949 15.9395H13.7031C12.1476 15.9395 10.8867 17.2004 10.8867 18.7558V39.3972C10.8867 40.9526 12.1476 42.2135 13.7031 42.2135H38.2949C39.8503 42.2135 41.1113 40.9526 41.1113 39.3972V18.7558C41.1113 17.2004 39.8503 15.9395 38.2949 15.9395Z" fill="white" stroke="#0087C8" stroke-width="0.941927" stroke-miterlimit="10"/>
<path d="M37.8733 17.2827H14.1273C13.4292 17.2827 12.8633 17.8487 12.8633 18.5468V19.5754C12.8633 20.2735 13.4292 20.8394 14.1273 20.8394H37.8733C38.5714 20.8394 39.1374 20.2735 39.1374 19.5754V18.5468C39.1374 17.8487 38.5714 17.2827 37.8733 17.2827Z" fill="#0087C8" stroke="white" stroke-width="0.565156" stroke-miterlimit="10"/>
<path d="M17.625 21.9639H14.6296C14.4205 21.9639 14.251 22.1334 14.251 22.3425V25.3378C14.251 25.547 14.4205 25.7165 14.6296 25.7165H17.625C17.8341 25.7165 18.0036 25.547 18.0036 25.3378V22.3425C18.0036 22.1334 17.8341 21.9639 17.625 21.9639Z" fill="#0087C8"/>
<path d="M22.5644 21.9639H19.5691C19.36 21.9639 19.1904 22.1334 19.1904 22.3425V25.3378C19.1904 25.547 19.36 25.7165 19.5691 25.7165H22.5644C22.7735 25.7165 22.9431 25.547 22.9431 25.3378V22.3425C22.9431 22.1334 22.7735 21.9639 22.5644 21.9639Z" fill="#0087C8"/>
<path d="M27.5039 21.9639H24.5085C24.2994 21.9639 24.1299 22.1334 24.1299 22.3425V25.3378C24.1299 25.547 24.2994 25.7165 24.5085 25.7165H27.5039C27.713 25.7165 27.8825 25.547 27.8825 25.3378V22.3425C27.8825 22.1334 27.713 21.9639 27.5039 21.9639Z" fill="#0087C8"/>
<path d="M32.4423 21.9639H29.447C29.2379 21.9639 29.0684 22.1334 29.0684 22.3425V25.3378C29.0684 25.547 29.2379 25.7165 29.447 25.7165H32.4423C32.6515 25.7165 32.821 25.547 32.821 25.3378V22.3425C32.821 22.1334 32.6515 21.9639 32.4423 21.9639Z" fill="#0087C8"/>
<path d="M37.3818 21.9639H34.3865C34.1773 21.9639 34.0078 22.1334 34.0078 22.3425V25.3378C34.0078 25.547 34.1773 25.7165 34.3865 25.7165H37.3818C37.5909 25.7165 37.7604 25.547 37.7604 25.3378V22.3425C37.7604 22.1334 37.5909 21.9639 37.3818 21.9639Z" fill="#0087C8"/>
<path d="M17.5732 26.9033H14.5779C14.3687 26.9033 14.1992 27.0728 14.1992 27.282V30.2773C14.1992 30.4864 14.3687 30.656 14.5779 30.656H17.5732C17.7823 30.656 17.9519 30.4864 17.9519 30.2773V27.282C17.9519 27.0728 17.7823 26.9033 17.5732 26.9033Z" fill="#0087C8"/>
<path d="M22.5127 26.9033H19.5173C19.3082 26.9033 19.1387 27.0728 19.1387 27.282V30.2773C19.1387 30.4864 19.3082 30.656 19.5173 30.656H22.5127C22.7218 30.656 22.8913 30.4864 22.8913 30.2773V27.282C22.8913 27.0728 22.7218 26.9033 22.5127 26.9033Z" fill="#0087C8"/>
<path d="M27.4492 26.9033H24.4539C24.2447 26.9033 24.0752 27.0728 24.0752 27.282V30.2773C24.0752 30.4864 24.2447 30.656 24.4539 30.656H27.4492C27.6583 30.656 27.8278 30.4864 27.8278 30.2773V27.282C27.8278 27.0728 27.6583 26.9033 27.4492 26.9033Z" fill="#0087C8"/>
<path d="M32.3906 26.9033H29.3953C29.1861 26.9033 29.0166 27.0728 29.0166 27.282V30.2773C29.0166 30.4864 29.1861 30.656 29.3953 30.656H32.3906C32.5997 30.656 32.7692 30.4864 32.7692 30.2773V27.282C32.7692 27.0728 32.5997 26.9033 32.3906 26.9033Z" fill="#0087C8"/>
<path d="M37.3281 26.9033H34.3328C34.1236 26.9033 33.9541 27.0728 33.9541 27.282V30.2773C33.9541 30.4864 34.1236 30.656 34.3328 30.656H37.3281C37.5372 30.656 37.7067 30.4864 37.7067 30.2773V27.282C37.7067 27.0728 37.5372 26.9033 37.3281 26.9033Z" fill="#0087C8"/>
<path d="M17.5732 31.8408H14.5779C14.3687 31.8408 14.1992 32.0104 14.1992 32.2195V35.2148C14.1992 35.4239 14.3687 35.5935 14.5779 35.5935H17.5732C17.7823 35.5935 17.9519 35.4239 17.9519 35.2148V32.2195C17.9519 32.0104 17.7823 31.8408 17.5732 31.8408Z" fill="#0087C8"/>
<path d="M22.5127 31.8408H19.5173C19.3082 31.8408 19.1387 32.0104 19.1387 32.2195V35.2148C19.1387 35.4239 19.3082 35.5935 19.5173 35.5935H22.5127C22.7218 35.5935 22.8913 35.4239 22.8913 35.2148V32.2195C22.8913 32.0104 22.7218 31.8408 22.5127 31.8408Z" fill="#0087C8"/>
<path d="M27.4492 31.8408H24.4539C24.2447 31.8408 24.0752 32.0104 24.0752 32.2195V35.2148C24.0752 35.4239 24.2447 35.5935 24.4539 35.5935H27.4492C27.6583 35.5935 27.8278 35.4239 27.8278 35.2148V32.2195C27.8278 32.0104 27.6583 31.8408 27.4492 31.8408Z" fill="#0087C8"/>
<path d="M32.3906 31.8408H29.3953C29.1861 31.8408 29.0166 32.0104 29.0166 32.2195V35.2148C29.0166 35.4239 29.1861 35.5935 29.3953 35.5935H32.3906C32.5997 35.5935 32.7692 35.4239 32.7692 35.2148V32.2195C32.7692 32.0104 32.5997 31.8408 32.3906 31.8408Z" fill="#0087C8"/>
<path d="M37.3281 31.8408H34.3328C34.1236 31.8408 33.9541 32.0104 33.9541 32.2195V35.2148C33.9541 35.4239 34.1236 35.5935 34.3328 35.5935H37.3281C37.5372 35.5935 37.7067 35.4239 37.7067 35.2148V32.2195C37.7067 32.0104 37.5372 31.8408 37.3281 31.8408Z" fill="#0087C8"/>
<path d="M17.5732 36.7803H14.5779C14.3687 36.7803 14.1992 36.9498 14.1992 37.1589V40.1543C14.1992 40.3634 14.3687 40.5329 14.5779 40.5329H17.5732C17.7823 40.5329 17.9519 40.3634 17.9519 40.1543V37.1589C17.9519 36.9498 17.7823 36.7803 17.5732 36.7803Z" fill="#0087C8"/>
<path d="M22.5127 36.7803H19.5173C19.3082 36.7803 19.1387 36.9498 19.1387 37.1589V40.1543C19.1387 40.3634 19.3082 40.5329 19.5173 40.5329H22.5127C22.7218 40.5329 22.8913 40.3634 22.8913 40.1543V37.1589C22.8913 36.9498 22.7218 36.7803 22.5127 36.7803Z" fill="#0087C8"/>
<path d="M27.4492 36.7803H24.4539C24.2447 36.7803 24.0752 36.9498 24.0752 37.1589V40.1543C24.0752 40.3634 24.2447 40.5329 24.4539 40.5329H27.4492C27.6583 40.5329 27.8278 40.3634 27.8278 40.1543V37.1589C27.8278 36.9498 27.6583 36.7803 27.4492 36.7803Z" fill="#0087C8"/>
<path d="M32.3906 36.7803H29.3953C29.1861 36.7803 29.0166 36.9498 29.0166 37.1589V40.1543C29.0166 40.3634 29.1861 40.5329 29.3953 40.5329H32.3906C32.5997 40.5329 32.7692 40.3634 32.7692 40.1543V37.1589C32.7692 36.9498 32.5997 36.7803 32.3906 36.7803Z" fill="#0087C8"/>
<path d="M37.3281 36.7803H34.3328C34.1236 36.7803 33.9541 36.9498 33.9541 37.1589V40.1543C33.9541 40.3634 34.1236 40.5329 34.3328 40.5329H37.3281C37.5372 40.5329 37.7067 40.3634 37.7067 40.1543V37.1589C37.7067 36.9498 37.5372 36.7803 37.3281 36.7803Z" fill="#0087C8"/>
</svg>
